<?xml version="1.0" encoding="UTF-8"?>
<svg id="Capa_2" data-name="Capa 2" xmlns="http://www.w3.org/2000/svg" viewBox="0 0 644.82 162.13">
  <defs>
    <style>
      .cls-1 {
        fill: #008037;
      }

      .cls-2 {
        fill: #2baae2;
      }

      .cls-3 {
        fill: none;
      }

      .cls-4 {
        fill: #ffca00;
      }

      .cls-5 {
        fill: #25346c;
      }

      .cls-6 {
        fill: #036838;
      }

      .cls-7 {
        fill: #ffed9f;
      }

      .cls-8 {
        fill: #cf122b;
      }

      .cls-9 {
        fill: #038036;
      }
    </style>
  </defs>
  <g id="LOGO">
    <g id="POSITIVO">
      <g>
        <path class="cls-5" d="M220.22,65.15h24.02l-22.02,36.72v21.97h-21.43v-21.97l-21.92-36.72h24.02l8.67,19.43,8.67-19.43Z"/>
        <path class="cls-5" d="M260.37,65.15h26.51l23.42,58.69h-21.63l-3.79-11.23h-22.62l-3.49,11.23h-21.82l23.42-58.69ZM266.45,99.17h14.05l-6.88-19.75-7.18,19.75Z"/>
        <path class="cls-5" d="M315.58,65.15h34.88c14.65,0,22.42,5.98,22.42,16.15,0,7.46-4.19,12.21-11.96,14.59,4.68.98,10.06,7.54,11.36,11.89l5.28,16.07h-22.32l-3.49-11.39c-1.49-4.92-2.69-10.57-8.97-10.57h-5.78v21.97h-21.43v-58.69ZM342.29,89.58c5.88,0,9.57-1.39,9.57-5.9,0-3.28-3.69-5.49-9.07-5.49h-5.78v11.39h5.28Z"/>
        <path class="cls-5" d="M403.17,65.15h26.51l23.42,58.69h-21.63l-3.79-11.23h-22.62l-3.49,11.23h-21.82l23.42-58.69ZM409.25,99.17h14.05l-6.88-19.75-7.18,19.75Z"/>
        <path class="cls-5" d="M486.88,64.09c7.08,0,12.36,1.15,18.24,2.87v16.56c-4.78-2.21-9.37-4.02-14.05-4.02-9.97,0-15.75,5.16-15.75,14.67s5.78,14.84,15.75,14.84c4.68,0,9.27-1.15,14.65-3.61v15.49c-5.38,2.38-12.36,4.02-18.83,4.02-22.22,0-33.88-13.44-33.88-30.74,0-18.2,14.05-30.08,33.88-30.08Z"/>
        <path class="cls-5" d="M544.07,124.91c-18.14,0-30.3-8.2-30.3-24.84v-34.92h21.43v33.12c0,7.13,2.99,11.39,8.87,11.39s8.77-4.26,8.77-11.97v-32.54h21.43v34.92c0,16.64-12.16,24.84-30.2,24.84Z"/>
        <path class="cls-5" d="M620.8,65.15h24.02l-22.02,36.72v21.97h-21.43v-21.97l-21.92-36.72h24.02l8.67,19.43,8.67-19.43Z"/>
      </g>
      <g>
        <path class="cls-5" d="M178.27,41.27v-.05c0-4.86,4.11-8.85,9.73-8.85,3.31,0,5.38.83,7.29,2.35l-2.57,2.86c-1.4-1.1-2.73-1.74-4.85-1.74-2.97,0-5.33,2.42-5.33,5.33v.05c0,3.13,2.33,5.43,5.62,5.43,1.51,0,2.81-.34,3.84-1.03v-2.44h-4.11v-3.25h8.06v7.43c-1.91,1.49-4.53,2.71-7.92,2.71-5.78,0-9.75-3.72-9.75-8.8Z"/>
        <path class="cls-5" d="M199.05,41.27v-.05c0-4.86,4.16-8.85,9.89-8.85s9.83,3.94,9.83,8.8v.05c0,4.86-4.16,8.85-9.89,8.85s-9.83-3.94-9.83-8.8ZM214.5,41.27v-.05c0-2.93-2.33-5.38-5.62-5.38s-5.57,2.4-5.57,5.33v.05c0,2.93,2.33,5.38,5.62,5.38s5.57-2.4,5.57-5.33Z"/>
        <path class="cls-5" d="M222.4,32.66h8.61c2.15,0,3.76.51,4.85,1.52.85.78,1.27,1.76,1.27,2.91v.05c0,1.91-1.11,3.06-2.44,3.69,2.15.76,3.47,1.93,3.47,4.2v.05c0,3.13-2.76,4.69-6.94,4.69h-8.83v-17.11ZM233.08,37.72c0-1.15-.95-1.76-2.68-1.76h-4.03v3.62h3.76c1.8,0,2.94-.54,2.94-1.81v-.05ZM234.11,44.57c0-1.15-.9-1.86-3.02-1.86h-4.72v3.76h4.85c1.8,0,2.89-.59,2.89-1.86v-.05Z"/>
        <path class="cls-5" d="M241.53,32.66h13.99v3.35h-9.94v3.47h8.75v3.35h-8.75v3.59h10.07v3.35h-14.13v-17.11Z"/>
        <path class="cls-5" d="M259.29,32.66h8.48c2.36,0,4.16.59,5.41,1.74,1.06.98,1.59,2.27,1.59,3.91v.05c0,2.76-1.62,4.5-3.98,5.3l4.53,6.11h-4.77l-3.98-5.48h-3.21v5.48h-4.08v-17.11ZM267.51,40.97c2.01,0,3.13-.95,3.13-2.42v-.05c0-1.64-1.19-2.44-3.21-2.44h-4.06v4.91h4.13Z"/>
        <path class="cls-5" d="M278.46,32.66h3.76l8.69,10.54v-10.54h4.03v17.11h-3.47l-8.99-10.88v10.88h-4.03v-17.11Z"/>
        <path class="cls-5" d="M305.76,32.54h3.76l7.95,17.23h-4.27l-1.7-3.84h-7.85l-1.7,3.84h-4.16l7.95-17.23ZM310.05,42.61l-2.46-5.55-2.47,5.55h4.93Z"/>
        <path class="cls-5" d="M318.32,41.27v-.05c0-4.86,3.98-8.85,9.67-8.85,3.47,0,5.62,1.08,7.31,2.64l-2.6,2.76c-1.46-1.2-2.86-1.93-4.74-1.93-3.13,0-5.38,2.4-5.38,5.33v.05c0,2.93,2.2,5.38,5.38,5.38,2.12,0,3.42-.76,4.88-2l2.6,2.42c-1.91,1.88-4,3.06-7.61,3.06-5.46,0-9.52-3.89-9.52-8.8Z"/>
        <path class="cls-5" d="M338.89,32.66h4.08v17.11h-4.08v-17.11Z"/>
        <path class="cls-5" d="M346.78,41.27v-.05c0-4.86,4.16-8.85,9.89-8.85s9.83,3.94,9.83,8.8v.05c0,4.86-4.16,8.85-9.89,8.85s-9.83-3.94-9.83-8.8ZM362.24,41.27v-.05c0-2.93-2.33-5.38-5.62-5.38s-5.57,2.4-5.57,5.33v.05c0,2.93,2.33,5.38,5.62,5.38s5.57-2.4,5.57-5.33ZM358.21,27.24l3.47,1.39-3.6,2.44h-3.07l3.21-3.84Z"/>
        <path class="cls-5" d="M370.14,32.66h3.76l8.69,10.54v-10.54h4.03v17.11h-3.47l-8.99-10.88v10.88h-4.03v-17.11Z"/>
        <path class="cls-5" d="M402.43,32.66h8.61c2.15,0,3.76.51,4.85,1.52.85.78,1.27,1.76,1.27,2.91v.05c0,1.91-1.11,3.06-2.44,3.69,2.15.76,3.47,1.93,3.47,4.2v.05c0,3.13-2.76,4.69-6.94,4.69h-8.83v-17.11ZM413.11,37.72c0-1.15-.95-1.76-2.68-1.76h-4.03v3.62h3.76c1.8,0,2.94-.54,2.94-1.81v-.05ZM414.15,44.57c0-1.15-.9-1.86-3.02-1.86h-4.72v3.76h4.85c1.8,0,2.89-.59,2.89-1.86v-.05Z"/>
        <path class="cls-5" d="M420.75,41.27v-.05c0-4.86,4.16-8.85,9.89-8.85s9.83,3.94,9.83,8.8v.05c0,4.86-4.16,8.85-9.89,8.85s-9.83-3.94-9.83-8.8ZM436.2,41.27v-.05c0-2.93-2.33-5.38-5.62-5.38s-5.57,2.4-5.57,5.33v.05c0,2.93,2.33,5.38,5.62,5.38s5.57-2.4,5.57-5.33Z"/>
        <path class="cls-5" d="M444.1,32.66h4.08v13.69h9.25v3.42h-13.33v-17.11Z"/>
        <path class="cls-5" d="M460.69,32.66h4.08v17.11h-4.08v-17.11Z"/>
        <path class="cls-5" d="M467.82,32.66h4.51l4.85,12.05,4.85-12.05h4.4l-7.5,17.23h-3.6l-7.5-17.23Z"/>
        <path class="cls-5" d="M493,32.54h3.76l7.95,17.23h-4.27l-1.7-3.84h-7.85l-1.7,3.84h-4.16l7.95-17.23ZM497.29,42.61l-2.46-5.55-2.47,5.55h4.93Z"/>
        <path class="cls-5" d="M507.58,32.66h8.48c2.36,0,4.16.59,5.41,1.74,1.06.98,1.59,2.27,1.59,3.91v.05c0,2.76-1.62,4.5-3.98,5.3l4.53,6.11h-4.77l-3.98-5.48h-3.21v5.48h-4.08v-17.11ZM515.79,40.97c2.01,0,3.13-.95,3.13-2.42v-.05c0-1.64-1.19-2.44-3.21-2.44h-4.06v4.91h4.13Z"/>
        <path class="cls-5" d="M526.92,32.66h4.08v17.11h-4.08v-17.11Z"/>
        <path class="cls-5" d="M542.01,32.54h3.76l7.95,17.23h-4.27l-1.7-3.84h-7.85l-1.7,3.84h-4.16l7.95-17.23ZM546.3,42.61l-2.46-5.55-2.47,5.55h4.93Z"/>
        <path class="cls-5" d="M556.58,32.66h3.76l8.69,10.54v-10.54h4.03v17.11h-3.47l-8.99-10.88v10.88h-4.03v-17.11Z"/>
        <path class="cls-5" d="M583.88,32.54h3.76l7.95,17.23h-4.27l-1.7-3.84h-7.85l-1.7,3.84h-4.16l7.95-17.23ZM588.18,42.61l-2.46-5.55-2.47,5.55h4.93Z"/>
        <path class="cls-5" d="M609.82,32.66h7.24c5.83,0,9.86,3.69,9.86,8.51v.05c0,4.82-4.03,8.56-9.86,8.56h-7.24v-17.11ZM613.9,36.06v10.32h3.15c3.31,0,5.59-2.08,5.59-5.11v-.05c0-3.03-2.28-5.16-5.59-5.16h-3.15Z"/>
        <path class="cls-5" d="M630.55,32.66h13.99v3.35h-9.94v3.47h8.75v3.35h-8.75v3.59h10.07v3.35h-14.13v-17.11Z"/>
      </g>
      <g id="LOGO-2" data-name="LOGO">
        <g>
          <polygon class="cls-6" points="92.37 107.84 92.4 107.9 92.36 107.86 92.37 107.84"/>
          <path class="cls-7" d="M100.62,33.52c.55-1.16.31-2.51-.58-3.41l47.04,4.21c3,4.24,5.61,8.79,7.76,13.58l-54.26-14.3s.03-.05.04-.07Z"/>
          <path class="cls-7" d="M137.61,23.19l-36.5,3.34c.94-.54,1.53-1.54,1.52-2.67,0-.43-.1-.83-.25-1.2l26.37-7.01c3.13,2.3,6.1,4.82,8.87,7.53Z"/>
          <path class="cls-7" d="M119.86,10l-21.89,10.32-.83-.23,2.43-2.2c.9-.82,1.22-2.04.86-3.16l11.98-8.35c2.55,1.08,5.04,2.29,7.46,3.62Z"/>
          <path class="cls-7" d="M105.27,3.75l-8.94,9.01-2.67.5,1.23-3.03c.27-.66.3-1.36.11-2l4.3-6.12h0c2.02.47,4,1.01,5.96,1.63Z"/>
          <path class="cls-7" d="M93.48.98l-2.41,5.23c-.28.1-.54.24-.78.42l-2.72,1.99-.21-3.28c-.02-.23-.05-.46-.12-.68l1.16-4.31c1.71.16,3.4.37,5.07.63Z"/>
          <path class="cls-7" d="M83.19.03l-.23,2.76c-.55.28-1.02.72-1.33,1.3l-1.58,2.97-1.24-2.2-.41-4.83c.8-.02,1.61-.04,2.42-.04s1.58.01,2.37.03Z"/>
          <path class="cls-7" d="M73.98,3.25c-.73.53-1.19,1.37-1.22,2.33l-.13,3.36-1.22-.85-3.29-7.1c1.68-.26,3.37-.48,5.07-.64l.79,2.9Z"/>
          <path class="cls-7" d="M66.75,13.85l-.48-.08-9.95-9.99c1.96-.62,3.95-1.17,5.97-1.64l3.74,5.29c-.87.88-1.12,2.18-.61,3.34l1.34,3.09Z"/>
          <path class="cls-7" d="M62.27,19.69l-20.57-9.64c2.42-1.34,4.91-2.55,7.47-3.64l11.5,7.98c-.16.19-.29.4-.4.64-.58,1.25-.28,2.69.77,3.59l1.24,1.07Z"/>
          <path class="cls-7" d="M58.26,24.7c0,.64.2,1.23.55,1.72l-34.85-3.12c2.77-2.73,5.73-5.25,8.87-7.56l26.2,6.91c-.49.55-.77,1.27-.76,2.06Z"/>
          <path class="cls-7" d="M61.93,30.12l-.62.56c-.89.8-1.21,2.01-.87,3.13L6.74,48.07c2.14-4.8,4.74-9.36,7.74-13.61l47.46-4.34Z"/>
          <g>
            <path class="cls-1" d="M16.55,110.57c2.64-1.57,4.7-2.8,6.77-4.02,4.79-2.84,9.6-5.64,14.37-8.51,1.93-1.16,3.77-1.51,5.73-.08,3.38,2.44,6.95,2.93,10.7.83.26-.15.58-.21.84-.36,3.44-2,6.1-1.8,9.71.81,4.27,3.1,9.75,4.53,14.72,6.63.4.17,1.04-.02,1.5-.21,4.36-1.81,8.74-3.59,13.03-5.55,1.35-.62,2.56-1.66,3.67-2.69,1.12-1.05,2.14-1.16,3.51-.52,1.93.9,3.99,1.52,5.91,2.43,2.75,1.31,5.42,1.13,7.78-.62,3.08-2.28,5.68-1.74,8.73.22,5.58,3.59,11.4,6.78,17.12,10.15.63.37,1.22.8,2.26,1.47H16.55Z"/>
            <path class="cls-1" d="M144.99,117.56c-.61,1.02-1.24,2.02-1.89,3-3.28-.81-15.85-3.68-29.37-3.68-15.74,0-26.3-.07-26.3-.07,0,0,24.55-1.82,34.46-1.53,8.4.24,19.81,1.82,23.09,2.29Z"/>
            <path class="cls-1" d="M139.95,124.96c-1.29,1.67-2.64,3.28-4.06,4.83-4.65-1.7-18.93-6.76-27.34-7.89-11.94-1.6-21.2-2.12-21.2-2.12,0,0,10.35-1.02,25.93,0,12.46.82,22.94,3.95,26.66,5.18Z"/>
            <path class="cls-1" d="M131.37,134.33c-1.66,1.54-3.4,3-5.2,4.38-1.11-.84-12.92-9.48-38.82-15.71,0,0,14.64.66,25.57,4.15,9.43,3.02,16.65,6.33,18.44,7.19Z"/>
            <path class="cls-1" d="M87.36,126.49s11.07,0,32.75,16.78c-3.75,1.87-6.93,3.66-6.93,3.66,0,0-11.98-15.48-25.82-20.44Z"/>
            <path class="cls-1" d="M87.43,130.35s3.28,2.84,5.75,8.52c2.48,5.68,3.58,13.47,3.58,13.47l6.97-1.78s-.57-11.03-16.3-20.2Z"/>
            <path class="cls-1" d="M74.17,116.8s-10.56.07-26.3.07c-12.16,0-23.56,2.33-28.11,3.38-.62-.95-1.22-1.91-1.8-2.89,4.38-.61,14.27-1.88,21.75-2.1,9.91-.29,34.45,1.53,34.45,1.53Z"/>
            <path class="cls-1" d="M74.25,119.78s-9.25.51-21.2,2.12c-7.83,1.05-20.74,5.51-26.24,7.49-1.39-1.54-2.72-3.15-3.98-4.81,4.45-1.4,14.16-4.06,25.49-4.8,15.59-1.02,25.93,0,25.93,0Z"/>
            <path class="cls-1" d="M74.25,122.99s-14.64.66-25.57,4.15c-10.93,3.5-18.88,7.39-18.88,7.39l5.55,4.23s11.66-9.22,38.9-15.78Z"/>
            <path class="cls-1" d="M74.25,126.49s-11.07,0-32.75,16.78c3.75,1.87,6.93,3.66,6.93,3.66,0,0,11.98-15.48,25.82-20.44Z"/>
            <path class="cls-1" d="M74.17,130.35s-3.28,2.84-5.75,8.52c-2.48,5.68-3.58,13.47-3.58,13.47l-6.97-1.78s.57-11.03,16.3-20.2Z"/>
          </g>
          <polygon class="cls-9" points="67.52 107.97 67.53 107.98 67.5 108.01 67.52 107.97"/>
          <polygon class="cls-9" points="92.4 107.9 92.36 107.86 92.37 107.84 92.4 107.9"/>
          <path class="cls-5" d="M158.87,60.89c.9,4.87,1.38,9.89,1.38,15.03,0,15.3-4.19,29.62-11.47,41.81-.65,1.09-1.32,2.16-2.02,3.21-1.07,1.62-2.2,3.19-3.38,4.72-1.38,1.79-2.83,3.52-4.35,5.18-1.55,1.69-3.16,3.32-4.85,4.87-1.78,1.65-3.64,3.21-5.57,4.69-2.18,1.67-4.44,3.23-6.79,4.67-2.35,1.44-4.78,2.77-7.28,3.96-10.25,4.9-21.7,7.63-33.79,7.63-6.13,0-12.1-.71-17.83-2.04-2.53-.59-5.02-1.3-7.46-2.13-3.31-1.12-6.52-2.46-9.61-4.01-2.41-1.2-4.76-2.52-7.03-3.95-2.31-1.46-4.54-3.03-6.68-4.72-1.85-1.45-3.63-2.98-5.34-4.59-1.63-1.54-3.21-3.14-4.71-4.81-1.49-1.65-2.92-3.37-4.27-5.15-1.15-1.5-2.24-3.05-3.28-4.64-.67-1.02-1.31-2.05-1.93-3.1-7.21-12.15-11.35-26.39-11.35-41.6,0-5.14.47-10.16,1.38-15.03-1.71,6.54-2.63,13.41-2.63,20.49,0,44.59,36.15,80.74,80.75,80.74s80.74-36.15,80.74-80.74c0-7.08-.91-13.95-2.63-20.49Z"/>
          <path class="cls-4" d="M84.92,5.49l.41,6.65c.03.47.57.73.95.45l5.44-3.99c.49-.36,1.14.15.91.71l-2.51,6.16c-.18.44.2.9.67.81l6.63-1.24c.59-.11.96.63.51,1.03l-4.93,4.47c-.35.32-.21.9.25,1.02l6.5,1.76c.58.16.59.98.01,1.15l-6.37,1.87c-.46.13-.58.72-.22,1.03l5.1,4.41c.46.4.11,1.14-.49,1.04l-6.57-1.07c-.47-.08-.84.39-.65.83l2.68,6.18c.24.55-.4,1.08-.89.73l-5.45-3.82c-.39-.27-.92,0-.94.47l-.26,6.74c-.02.6-.83.8-1.12.27l-3.25-5.8c-.23-.41-.83-.41-1.05.01l-3.17,5.96c-.28.53-1.09.36-1.13-.24l-.41-6.65c-.03-.47-.57-.73-.95-.45l-5.44,3.99c-.49.36-1.14-.15-.91-.71l2.51-6.16c.18-.44-.2-.9-.67-.81l-6.63,1.24c-.59.11-.96-.63-.51-1.03l4.93-4.47c.35-.32.21-.9-.25-1.02l-6.5-1.76c-.58-.16-.59-.98-.01-1.15l6.38-1.88c.45-.13.58-.72.22-1.03l-5.1-4.41c-.46-.4-.11-1.14.49-1.04l6.57,1.07c.47.08.84-.39.65-.83l-2.68-6.18c-.24-.55.4-1.08.89-.73l5.45,3.82c.39.27.92,0,.94-.47l.26-6.74c.02-.6.83-.8,1.12-.27l3.26,5.8c.23.41.83.41,1.05-.01l3.17-5.95c.28-.53,1.09-.36,1.13.24Z"/>
          <polygon class="cls-9" points="92.4 107.9 92.36 107.86 92.37 107.84 92.4 107.9"/>
          <line class="cls-3" x1="33.01" y1="100.18" x2="32.76" y2="100.53"/>
          <path class="cls-5" d="M75.98,158.16v-49.96c.03-6.62-2.11-10.93-9.09-13.88-.73-.31-1.52-.5-2.3-.63-9.9-1.6-17.64-4.85-25.04-12,10.06-1.52,30.62.62,39.1,18.6.47-7.71,1.09-15.25,4.52-19.8,7.83-10.41,26.04-17.07,62.01-39.48-13.89,15-22.32,28.39-31.76,37.09-7.96,7.34-14.08,9.3-18.81,12.77-5.41,4.1-8.79,11.42-8.72,15.74v51.55h-9.92Z"/>
          <path class="cls-8" d="M75.41,86.81c-3.39-25.49-24.6-19.02-46.35-45.72,1.67,9.55,4.73,18.15,10,25.23,2.17,2.91,4.9,5.34,8.03,7.17,6.84,3.99,16.41,8.05,28.33,13.33Z"/>
          <path class="cls-2" d="M79.83,78.53l24.11-37.46c-4.89,5.84-9.79,12.76-12.74,14.84-1.21.85-2.78.7-3.87-.02-1.15-.77-1.82-2.26-1.33-4.24.04-.17.06-.38-.43,0-1.31,1.02-2.9,3.26-2.18,6.24.08.35.15.7.15,1.06-.1,5.44-1.99,12.62-3.72,19.56Z"/>
        </g>
      </g>
    </g>
  </g>
</svg>